SplineFontDB: 3.0
FontName: Experiment-Latin-Italic
FullName: Experiment-Latin
FamilyName: Experiment-Latin
Weight: Italic
Copyright: Copyright (c) 2015, Pathum Egodawatta
UComments: "2015-9-29: Created with FontForge (http://fontforge.org)"
Version: 0.001
ItalicAngle: -10
UnderlinePosition: 100
UnderlineWidth: 49
Ascent: 1000
Descent: 0
InvalidEm: 0
LayerCount: 3
Layer: 0 0 "Back" 1
Layer: 1 0 "Fore" 0
Layer: 2 0 "Back 2" 1
PreferredKerning: 4
XUID: [1021 779 -1439063335 14876943]
FSType: 0
OS2Version: 0
OS2_WeightWidthSlopeOnly: 0
OS2_UseTypoMetrics: 1
CreationTime: 1443542790
ModificationTime: 1468013697
PfmFamily: 17
TTFWeight: 400
TTFWidth: 5
LineGap: 122
VLineGap: 0
OS2TypoAscent: 129
OS2TypoAOffset: 1
OS2TypoDescent: 0
OS2TypoDOffset: 1
OS2TypoLinegap: 122
OS2WinAscent: 129
OS2WinAOffset: 1
OS2WinDescent: -161
OS2WinDOffset: 1
HheadAscent: 29
HheadAOffset: 1
HheadDescent: 183
HheadDOffset: 1
OS2Vendor: 'PfEd'
Lookup: 258 0 0 "'kern' Horizontal Kerning in Latin lookup 0" { "'kern' Horizontal Kerning in Latin lookup 0-1" [150,15,0] } ['kern' ('DFLT' <'dflt' > 'latn' <'dflt' > ) ]
MarkAttachClasses: 1
DEI: 91125
KernClass2: 4 5 "'kern' Horizontal Kerning in Latin lookup 0-1"
 11 n i d l m g
 3 W T
 0 
 1 g
 39 a b c d e f h m o p q r s t u v w x y z
 7 i n j l
 0 
 0 {} 0 {} 0 {} 0 {} 0 {} 0 {} 40 {} 0 {} -44 {} 0 {} 0 {} 0 {} -107 {} -88 {} 0 {} 0 {} 0 {} 0 {} 0 {} 0 {}
LangName: 1033
Encoding: maname-latin
UnicodeInterp: none
NameList: Adobe Glyph List
DisplaySize: -72
AntiAlias: 1
FitToEm: 1
WinInfo: 154 11 6
BeginPrivate: 0
EndPrivate
Grid
-1000 -118.799804688 m 4
 2000 -118.799804688 l 1028
-1000 603 m 0
 2000 603 l 1024
-1000 100 m 0
 2000 100 l 1024
-1000 831 m 0
 2000 831 l 1024
-1000 791.5 m 0
 2000 791.5 l 1024
-1000 541 m 0
 2000 541 l 1024
-1000 581 m 0
 2000 581 l 1024
-1000 592 m 0
 2000 592 l 1024
-1000 611 m 0
 2000 611 l 1024
-1000 870 m 0
 2000 870 l 1024
-1000 -278 m 0
 2000 -278 l 1024
-1000 52 m 0
 2000 68 l 1024
2000 766 m 1024

StartChar: a
Encoding: 55 97 1
AltUni2: 0000aa.ffffffff.0
GlifName: uni0061
Width: 636
VWidth: 79
Flags: HMW
LayerCount: 3
Fore
SplineSet
21 136 m 0
 21 63 61 -15 155 -15 c 0
 334 -15 435 255 435 255 c 1
 430 336 l 1
 411 259 316 83 203 83 c 0
 149 83 124 128 124 179 c 0
 124 320 244 526 395 522 c 0
 471 520 514 470 519 464 c 1
 559 578 l 1
 551 576 539 575 531 575 c 0
 525 575 522 576 522 576 c 1
 464 597 l 1
 461 481 430 343 411 246 c 1
 424 234 l 1
 408 176 392 108 390 63 c 4
 388 18 409 -18 469 -18 c 0
 533 -18 584 4 613 22 c 1
 618 32 618 44 616 60 c 1
 605 59 594 58 584 58 c 0
 505 58 485 94 486 159 c 0
 489 320 554 515 575 591 c 1
 560 611 l 1
 553 611 l 2
 236 611 21 368 21 136 c 0
EndSplineSet
EndChar

StartChar: n
Encoding: 68 110 2
GlifName: uni006E_
Width: 684
VWidth: 79
Flags: HMW
LayerCount: 3
Fore
SplineSet
39 541 m 1
 39 554 45 574 49 581 c 1
 141.986328125 581 263.0625 611 265 611 c 1
 278 593 l 1
 260.23046875 525.670898438 221.73046875 374.69140625 201 289 c 1
 217 289 l 1
 198 192 183 125 185 -2 c 1
 151 -7 94 -14 65 -17 c 1
 54 -2 l 1
 82 76 120 176 140 288 c 0
 179.27734375 505.889648438 173.666992188 541 39 541 c 1
167 215 m 1
 234 457 414.000976562 613.037109375 524 611 c 0
 578 610 612 579 610 517 c 0
 608 426 541 262 533 152 c 0
 526 58 565 40 652 55 c 1
 656 42 653 28 649 17 c 1
 610 -7 550 -26 488 -24 c 0
 436 -22 411 6 420 58 c 0
 431 119 515 293 519 451 c 0
 520.3671875 505.01953125 497 524 460 521 c 0
 355 513 215 305 200 205 c 1
 167 215 l 1
EndSplineSet
EndChar

StartChar: d
Encoding: 58 100 3
GlifName: uni0064
Width: 678
VWidth: 79
Flags: HMW
LayerCount: 3
Fore
SplineSet
38 157 m 0
 38 364 199 614 507 614 c 0
 522 614 537 613 552 612 c 1
 498 485 l 1
 498 485 459 542 380 542 c 0
 232 542 147 335 147 200 c 0
 147 135 168 76 234 76 c 4
 354 76 440 295 451 353 c 1
 459 265 l 1
 422 161 338 -18 187 -18 c 0
 71 -18 38 70 38 157 c 0
382 792 m 1
 380 800 384 819 391 831 c 1
 483 831 616 871 618 871 c 1
 631 849 l 1
 620 809 609 762 593 682 c 0
 560 512 521 305 520 153 c 0
 519 77 549 52 618 52 c 0
 628 52 639 53 650 54 c 1
 652 38 652 26 647 16 c 1
 618 -2 567 -24 503 -24 c 0
 443 -24 418 14 418 62 c 0
 418 109 439 193 448 239 c 1
 435 270 l 1
 447 328 501 627 501 697 c 0
 501 787 464 792 382 792 c 1
EndSplineSet
EndChar

StartChar: h
Encoding: 62 104 4
GlifName: uni0068
Width: 656
VWidth: 79
Flags: HMW
LayerCount: 3
Fore
SplineSet
143 215 m 1
 210 457 379 611 495 611 c 0
 548.009090158 611 581 584 580 522 c 4
 578 431 513 262 505 152 c 0
 498 58 542 43 629 58 c 1
 633 45 631 33 626 20 c 1
 587 -4 515 -26 453 -24 c 0
 401 -22 376 6 385 58 c 0
 396 119 477 277 484 442 c 0
 486 496 464 515 427 512 c 0
 322 504 191 305 176 205 c 1
 143 215 l 1
25 -5 m 1
 97 195 181 582 181 724 c 0
 181 778 153 792 67 792 c 1
 67 803 70 822 77 831 c 1
 169 831 296 870 298 870 c 1
 311 849 l 1
 300 809 283 760 267 681 c 0
 253 609 204 346 192 291 c 0
 171 199 168 110 169 0 c 1
 134 -5 82 -13 43 -19 c 1
 37 -14 31 -9 25 -5 c 1
EndSplineSet
EndChar

StartChar: e
Encoding: 59 101 5
GlifName: uni0065
Width: 547
VWidth: 153
Flags: HMW
LayerCount: 3
Fore
SplineSet
34 173 m 0
 34 411 223.019079441 603.467360916 390 606 c 0
 486 607.456054688 525 562.762695312 525 499 c 0
 525 348 308 266 118 263 c 1
 130 323 l 5
 313 323 437 380 437 480 c 0
 437 520 422 551 371 551 c 0
 247 551 133 367 133 230 c 0
 133 140 165.78515625 58.384765625 291 60 c 0
 358.001953125 60.8642578125 391 80 423 100 c 1
 431 95 440 80 439 67 c 1
 417 44 346.193359375 -15.1396484375 228 -16 c 0
 94 -16.9755859375 34 51 34 173 c 0
EndSplineSet
EndChar

StartChar: i
Encoding: 63 105 6
GlifName: uni0069
Width: 393
VWidth: 79
Flags: HMW
LayerCount: 3
Fore
SplineSet
211 768 m 4
 211 819 250 852 294 852 c 4
 337 852 363 820 363 785 c 4
 363 732 325 701 281 701 c 4
 238 701 211 732 211 768 c 4
EndSplineSet
Refer: 120 305 N 1 0 0 1 0 0 3
EndChar

StartChar: s
Encoding: 73 115 7
GlifName: uni0073
Width: 474
VWidth: 153
Flags: HMW
LayerCount: 3
Fore
SplineSet
25 22 m 1
 25 55 35 123 50 180 c 1
 69 144 116 53 209 53 c 0
 262 53 288 90 288 139 c 0
 288 247 124 301 124 428 c 0
 124 556 236 612 407 612 c 2
 434 612 l 1
 447 594 l 1
 446 564 434 499 419 445 c 1
 377 518 329 544 279 544 c 0
 233 544 210 517 210 480 c 0
 210 372 389 289 389 173 c 0
 389 68 300 -6 153 -6 c 0
 91 -6 53 3 40 6 c 1
 25 22 l 1
EndSplineSet
EndChar

StartChar: o
Encoding: 69 111 8
AltUni2: 0000ba.ffffffff.0
GlifName: o
Width: 583
VWidth: 153
Flags: HMW
LayerCount: 3
Fore
SplineSet
32 198 m 4
 29 77 81 -17 211 -21 c 4
 425 -27 560 213 555 428 c 4
 553 539 485 612 383 612 c 4
 193 612 37 408 32 198 c 4
137 221 m 4
 137 391 230 552 336 552 c 4
 412 552 444 481 444 386 c 4
 444 230 380 50 251 50 c 4
 162 50 137 137 137 221 c 4
EndSplineSet
EndChar

StartChar: b
Encoding: 56 98 9
GlifName: b
Width: 634
VWidth: 79
Flags: HMW
LayerCount: 3
Fore
SplineSet
62 5 m 1
 80 -14 l 1
 98 -15 115 -16 132 -16 c 0
 445 -16 609 251 609 442 c 0
 609 549 555 614 465 614 c 0
 312 614 202 405 182 296 c 1
 195 245 l 1
 215 350 317 520 414 520 c 0
 476 520 505 476 505 403 c 0
 505 279 419.214817879 85.8545704476 290 74 c 0
 181 64 141 107 141 107 c 1
 79 -12 l 1
 122 -7 143 0 184 0 c 1
 183 19 183 38 183 57 c 0
 183 158 195 243 201 305 c 1
 201 357 l 1
 213 396 228 440 238 487 c 0
 267 635 295 749 328 850 c 1
 313 871 l 1
 255 857 165 831 80 831 c 1
 72 816 69 805 69 792 c 1
 164 792 192.644906345 779.98502123 190 680 c 4
 186.720703125 556.033203125 117 206 62 5 c 1
EndSplineSet
EndChar

StartChar: period
Encoding: 11 46 10
GlifName: period
Width: 203
VWidth: 79
Flags: HMW
LayerCount: 3
Fore
SplineSet
43 29 m 0
 43 80 82 113 115 113 c 4
 159 113 180 87 180 52 c 0
 180 -3 146 -27 99 -27 c 4
 70 -27 43 -7 43 29 c 0
EndSplineSet
EndChar

StartChar: t
Encoding: 74 116 11
GlifName: t
Width: 399
VWidth: 79
Flags: HMW
LayerCount: 3
Fore
SplineSet
40 537 m 1
 40 552.299804688 45 576.099609375 50 588 c 1
 156 588 l 1
 177 627 214 733 224 772 c 1
 266 780 304 787 305 787 c 1
 299 768 270 678 248 585 c 1
 383 585 l 1
 388 572 385 560 383 547 c 1
 329 546 273 528 237 510 c 1
 199 395 165 224 165 140 c 0
 165 72 187 52 266 52 c 0
 276 52 287 53 298 54 c 1
 300 38 300 26 295 16 c 1
 266 -2 205 -24 141 -24 c 0
 83 -24 51 10 51 53 c 0
 51 117.256835938 137 400.60546875 137 523 c 1
 129 530 85 537 40 537 c 1
EndSplineSet
EndChar

StartChar: p
Encoding: 70 112 12
GlifName: p
Width: 669
VWidth: 79
Flags: HMW
LayerCount: 3
Fore
SplineSet
23 -287 m 1
 31 -251 63 -154 87 -44 c 0
 115 85 133 153 158 288 c 0
 195 487 180 533 65 533 c 1
 63 547 64 561 73 578 c 1
 154 577 235 587 297 606 c 1
 311 587 l 1
 284 519 260 396 232 323 c 1
 233 323 l 2
 239 323 252 338 258 338 c 2
 259 338 l 1
 252 322 242 308 238 289 c 0
 222 213 157 -43 157 -145 c 0
 157 -209 202 -219 290 -221 c 1
 291 -239 286 -254 275 -270 c 1
 254 -270 l 2
 168 -270 112 -279 36 -299 c 1
 23 -287 l 1
126 1 m 1
 189 110 l 1
 189 110 215 69 306 69 c 0
 469 69 550 300 550 419 c 0
 550 489 524 532 474 532 c 0
 355 532 236 306 224 224 c 1
 190 244 l 1
 228 348 331 613 514 613 c 0
 613 613 653 536 653 440 c 0
 653 238 491 -7 186 -7 c 0
 167 -7 146 -1 126 1 c 1
EndSplineSet
EndChar

StartChar: v
Encoding: 76 118 13
GlifName: v
Width: 616
VWidth: 79
Flags: HMW
LayerCount: 3
Fore
SplineSet
30 541 m 5
 28.4 550.523809524 32.8 571.476190476 37 581 c 5
 93.3132683125 581.444976077 189.56412808 596.980861244 240 612 c 1
 254 592 l 1
 243 425.611721612 238 185.494505495 256 48 c 1
 256 47 l 1
 252 47 234 72 234 72 c 1
 309 161.799043062 486 348.229665072 486 480 c 0
 486 521 451.447916667 536 379 535 c 1
 376 543 377 554 381 567 c 1
 417.484615385 585 488.515384615 606 534 606 c 0
 582.947368421 606 596 580 596 554 c 0
 597 408.605633803 408 184.61971831 249 -4 c 1
 221 -6 173 -10 139 -18 c 1
 150 156.711656442 161 343.472392638 154 473 c 0
 149.571428571 535.9 100.857142857 541 30 541 c 5
EndSplineSet
EndChar

StartChar: m
Encoding: 67 109 14
GlifName: m
Width: 1059
VWidth: 79
Flags: HMW
LayerCount: 3
Fore
SplineSet
187 215 m 5
 254 467 417.000976562 613.037109375 527 611 c 0
 581 610 615 579 613 517 c 0
 611 426 546 262 538 152 c 0
 531 58 560 40 647 55 c 1
 651 42 648 28 644 17 c 1
 605 -7 557 -26 495 -24 c 0
 443 -22 421 6 430 58 c 0
 441 119 518 293 522 451 c 0
 523.3671875 505.01953125 500 524 463 521 c 0
 358 513 235 305 220 205 c 1
 187 215 l 5
513 215 m 1
 585 477 744.000976562 613.037109375 854 611 c 0
 908 610 942 579 940 517 c 0
 938 426 873 262 865 152 c 0
 858 58 897 40 984 55 c 1
 988 42 985 28 981 17 c 1
 942 -7 882 -26 820 -24 c 0
 768 -22 743 6 752 58 c 0
 763 119 845 293 849 451 c 0
 850.3671875 505.01953125 827 524 790 521 c 0
 685 513 561 305 546 205 c 1
 513 215 l 1
59 541 m 1
 59 554 65 574 69 581 c 1
 161.986547085 581 283.062780269 611 285 611 c 1
 299 593 l 1
 281 525.67114094 242 374.691275168 221 289 c 1
 237 289 l 1
 218 192 203 125 205 -2 c 1
 171 -7 114 -14 85 -17 c 1
 74 -2 l 1
 102 76 140 176 160 288 c 0
 199.277777778 505.889795918 193.666666667 541 59 541 c 1
EndSplineSet
EndChar

StartChar: g
Encoding: 61 103 15
GlifName: g
Width: 634
VWidth: 153
Flags: HMW
LayerCount: 3
Fore
SplineSet
-84 -212 m 1
 -79 -164 -61 -128 -47 -91 c 1
 -11 -143 82 -184 184 -184 c 0
 281 -184 382 -150 382 -71 c 0
 382 39 72 11 72 132 c 0
 72 238 248 281 319 303 c 1
 355 279 l 1
 295 252 167 221 167 173 c 0
 167 89 479 117 479 -33 c 0
 479 -164 313 -263 107 -263 c 0
 35 -263 -28 -253 -73 -233 c 1
 -84 -212 l 1
40 369 m 0
 40 522 213 617 341 617 c 0
 436 617 512 574 512 483 c 0
 512 331 340 245 195 245 c 0
 108 245 40 296 40 369 c 0
146 399 m 0
 146 340 182 298 245 298 c 0
 342 298 409 378 409 473 c 0
 409 527 383 569 307 569 c 0
 237 569 146 506 146 399 c 0
465 485 m 1
 465 501 l 1
 511 512 599 574 669 626 c 1
 683 613 l 1
 676 566 668 529 660 494 c 1
 601 492 513 487 465 485 c 1
EndSplineSet
EndChar

StartChar: H
Encoding: 34 72 16
GlifName: H_
Width: 877
VWidth: 79
Flags: HMW
LayerCount: 3
Fore
SplineSet
453 -1 m 1
 463 62 l 1
 526 63 563 75 574 138 c 0
 594 249 623 455 638 638 c 0
 643 697 631 739 533 736 c 1
 539 800 l 1
 660 795 762 796 859 801 c 1
 855 739 l 1
 794 736 756 726 743 663 c 0
 717 531 691 368 673 153 c 0
 667 82 714 50 766 54 c 1
 768 0 l 1
 453 -1 l 1
-17 -1 m 1
 -7 62 l 1
 56 63 93 75 104 138 c 0
 124 249 153 455 168 638 c 0
 173 697 161 739 63 736 c 1
 69 800 l 1
 190 795 292 796 389 801 c 1
 385 739 l 1
 324 736 286 726 273 663 c 0
 247 531 221 368 203 153 c 0
 197 82 244 50 296 54 c 1
 298 0 l 1
 -17 -1 l 1
189 358 m 1
 198 421 l 5
 487 422 l 5
 692 429 l 5
 682 358 l 1
 189 358 l 1
EndSplineSet
EndChar

StartChar: A
Encoding: 27 65 17
GlifName: A_
Width: 804
VWidth: 79
Flags: HMW
LayerCount: 3
Fore
SplineSet
20 0 m 1
 28 61 l 1
 106 63 129 117 157 186 c 0
 253 403 343 618 418 779 c 1
 454 785 490 797 527 810 c 1
 562 600 610 418 676 150 c 0
 687 104 712 49 780 51 c 1
 773 0 l 1
 468 0 l 1
 476 58 l 1
 547 57 579 65 570 124 c 0
 551 249 503 405 471 552 c 0
 462 592 460 660 457 702 c 1
 368 492 247 211 225 145 c 0
 199 49 260 50 298 51 c 1
 291 0 l 1
 20 0 l 1
258 268 m 1
 267 329 l 1
 591 337 l 1
 581 271 l 1
 258 268 l 1
EndSplineSet
EndChar

StartChar: B
Encoding: 28 66 18
GlifName: B_
Width: 736
VWidth: 79
Flags: HMW
LayerCount: 3
Fore
SplineSet
14 0 m 1
 21 57 l 1
 100 57 116 77 124 127 c 0
 159 342 187 468 199 628 c 0
 203 686 196 734 104 735 c 1
 109 798 l 1
 266 793 300 803 450 803 c 0
 585 803 669 738 655 618 c 0
 644 524 575 420 467 415 c 5
 492 440 l 5
 610 424 676 333 662 230 c 0
 639 58 471 0 310 0 c 2
 14 0 l 1
222 133 m 0
 222 75 253 68 329 68 c 0
 432 68 540 129 552 229 c 0
 563 316 509 386 394 389 c 4
 351 390 290 385 254 378 c 5
 241 278 221 207 222 133 c 0
265 453 m 5
 318 451 350 452 386 454 c 4
 483 459 544 537 552 599 c 0
 564 692 500 742 422 744 c 0
 376 745 336 739 312 730 c 1
 295 653 278 551 265 453 c 5
EndSplineSet
EndChar

StartChar: W
Encoding: 49 87 19
GlifName: W_
Width: 1221
VWidth: 79
Flags: HMW
LayerCount: 3
Fore
SplineSet
45 799 m 5
 142 794 262 792 344 799 c 5
 336 733 l 1
 272 734 225 732 233 673 c 0
 252 548 287 384 312 239 c 0
 316 216 331 120 335 85 c 1
 424 286 569 574 591 637 c 1
 670 661 l 1
 567 427 442 188 371 8 c 1
 334 2 288 -10 251 -23 c 1
 215 181 194 387 133 647 c 0
 122 693 106 735 37 733 c 1
 45 799 l 5
489 798 m 1
 594 799 691 798 796 798 c 1
 788 738 l 1
 723 739 675 737 682 673 c 0
 699 548 736 370 760 225 c 0
 765 187 773 111 777 70 c 1
 864 280 1002 579 1020 646 c 0
 1039 713 997 741 921 740 c 1
 928 798 l 1
 1033 798 1133 797 1238 797 c 1
 1231 736 l 1
 1151 745 1122 712 1100 661 c 0
 997 427 895 188 817 8 c 1
 782 2 746 -10 710 -23 c 1
 676 181 651 388 583 647 c 0
 571 693 556 754 482 742 c 1
 489 798 l 1
EndSplineSet
EndChar

StartChar: c
Encoding: 57 99 20
GlifName: c
Width: 507
VWidth: 153
Flags: HMW
LayerCount: 3
Fore
SplineSet
44 179 m 0
 47.7489049385 441.990786024 281 598 513 610 c 1
 524 595 l 1
 519 553 506 498 494 457 c 1
 465 494 429 519 374 519 c 0
 263 519 145 383 145 223 c 0
 145 138 182 61 283 61 c 0
 364 61 424 104 425 104 c 0
 435 96 440 82 439 69 c 1
 413 43 347 -18 237 -18 c 0
 91 -18 42.4580078125 70.8271484375 44 179 c 0
EndSplineSet
EndChar

StartChar: w
Encoding: 77 119 21
GlifName: w
Width: 918
VWidth: 79
Flags: HMW
LayerCount: 3
Fore
SplineSet
446 -18 m 1
 456.909090909 129.836185819 467.818181818 288.887530562 461 399 c 1
 559 466 l 1
 530 345.697560976 536 154.029268293 554 48 c 1
 541 72 l 1
 616 164 793 355 793 490 c 0
 793 531 761.677083333 546 696 545 c 1
 692 553 692 564 696 577 c 1
 727.238461538 598 795.761538462 616 827 616 c 0
 887 616 903 590 903 564 c 0
 904 416 715 188 556 -4 c 1
 528 -6 480 -10 446 -18 c 1
13 541 m 1
 10.2 546.714285714 15.625 571.476190476 20 581 c 1
 76.6073298429 581 182.940429688 599.286132812 228 613 c 1
 242 595 l 1
 231 427.612304688 230 186.493624772 248 48 c 1
 248 47 l 1
 244 47 224 72 224 72 c 1
 299 164.440191388 476 356.354066986 476 492 c 0
 476 533 445 548 380 547 c 1
 376 555 376 566 380 579 c 1
 411 600 479 618 510 618 c 0
 570 618 586 592 586 566 c 0
 587 417.478873239 398 188.676056338 239 -4 c 1
 212 -6 167 -10 134 -18 c 5
 145 155.64453125 155 341.265306122 148 471 c 0
 143.178571429 535.75 90.1428571429 541 13 541 c 1
EndSplineSet
EndChar

StartChar: V
Encoding: 48 86 22
GlifName: V_
Width: 826
VWidth: 79
Flags: HMW
LayerCount: 3
Fore
SplineSet
55 799 m 1
 166 794 300 793 383 799 c 5
 375 735 l 5
 305 736 255 734 264 675 c 4
 283 556 338.283203125 377.431640625 361 238 c 4
 367.283203125 199.431640625 383 117 382 76 c 1
 475 267 629 591 652 654 c 0
 685 750 604 749 556 748 c 1
 562 799 l 1
 673 795 782 790 886 799 c 1
 879 738 l 1
 799 747 773 713 748 663 c 0
 626 429 504 188 427 8 c 1
 387 2 339 -10 298 -23 c 1
 263 187 222 401 155 669 c 0
 142 705 118 744 49 744 c 1
 55 799 l 1
EndSplineSet
EndChar

StartChar: C
Encoding: 29 67 23
GlifName: C_
Width: 748
VWidth: 79
Flags: HMW
LayerCount: 3
Fore
SplineSet
56 297 m 0
 73 556 243 779 546 795 c 0
 681 802 751 770 751 770 c 1
 748 719 728 589 713 547 c 1
 654 550 l 1
 633 638 594 739 549 746 c 1
 566 767 722 742 657 647 c 1
 640 651 608 720 485 720 c 0
 327 720 190 555 169 353 c 0
 150 174 234 64 418 66 c 0
 517 67 595 105 652 153 c 1
 687 110 l 1
 605 22 491 -23 349 -23 c 0
 145 -23 42 90 56 297 c 0
EndSplineSet
EndChar

StartChar: q
Encoding: 71 113 24
GlifName: q
Width: 640
VWidth: 79
Flags: HMW
LayerCount: 3
Fore
SplineSet
41 157 m 0
 41 364 197 616 535 616 c 0
 550 616 565 615 580 614 c 1
 526 487 l 1
 526 487 462 542 383 542 c 0
 235 542 150 335 150 200 c 0
 150 135 175 76 241 76 c 0
 361 76 443 295 454 353 c 1
 462 265 l 1
 429 161 345 -18 198 -18 c 0
 79 -18 41 70 41 157 c 0
323 -287 m 1
 349 -173 412 79 444 225 c 1
 445 301 l 1
 457 379 471 441 471 529 c 0
 471 549 470 569 470 592 c 1
 581 612 l 1
 597 593 l 1
 548 384 457 3 457 -129 c 0
 457 -212 499 -219 587 -221 c 5
 588 -239 583 -254 572 -270 c 5
 551 -270 l 6
 465 -270 412 -279 336 -299 c 1
 323 -287 l 1
EndSplineSet
EndChar

StartChar: y
Encoding: 79 121 25
GlifName: y
Width: 662
VWidth: 79
Flags: HMW
LayerCount: 3
Fore
SplineSet
-92 -250 m 5
 -91.9609375 -214.245117188 -74.7470703125 -138.65625 -61 -100 c 5
 -41.3212890625 -143.200195312 -4.7763671875 -190 73 -190 c 4
 186.534179688 -190 292.84375 -35.2861328125 330 13 c 5
 295.666992188 -2.6279296875 261.333007812 -2.66796875 227 -5 c 5
 227 6 227 17 227 28 c 4
 227 178 204.854492188 349.639648438 176 449 c 4
 154.44921875 529.166992188 106.73046875 541.083007812 39 540 c 5
 39 554 41 567 49 581 c 5
 96.142578125 581 184.286132812 593.400390625 252 612 c 5
 266 593 l 5
 268.625 506.055664062 265.89453125 405.774414062 287 297 c 4
 300 230 316 110 345 41 c 5
 376 87.1298828125 526 306.981445312 526 465 c 4
 526 519.477539062 504.34375 539.08984375 427 538 c 5
 423 547 425 563 432 575 c 5
 468.739257812 588.538085938 545.28125 608 581 608 c 4
 634 608 647 580 647 554 c 4
 647 446.658203125 531.076171875 231.463867188 412 36 c 4
 303.247070312 -138 166.791992188 -286 17 -286 c 4
 -24.845703125 -286 -61.4619140625 -279 -85 -265 c 5
 -92 -250 l 5
EndSplineSet
EndChar

StartChar: l
Encoding: 66 108 26
GlifName: l
Width: 350
VWidth: 79
Flags: HMW
LayerCount: 3
Fore
SplineSet
72 68 m 0
 73 17 104 -24 163 -24 c 0
 227 -24 282 -2 311 16 c 1
 316 26 316 38 314 54 c 1
 303 53 292 52 282 52 c 0
 203 52 181 77 181 140 c 0
 183 332 274 675 321 850 c 1
 308 871 l 1
 306 871 162 831 82 831 c 5
 76 821 70 803 73 792 c 1
 156 792 189 788 185 708 c 0
 175 516 71 171 72 68 c 0
EndSplineSet
EndChar

StartChar: u
Encoding: 75 117 27
GlifName: u
Width: 690
VWidth: 79
Flags: HMW
LayerCount: 3
Fore
SplineSet
52 544 m 1
 49 554 52 570 57 585 c 5
 161 585 258 605 258 605 c 1
 271 587 l 1
 229 446 154 305 154 174 c 0
 154 128 168 83 216 83 c 0
 313 83 441 271 455 362 c 1
 476 338 l 1
 416 131 271 -8 168 -15 c 0
 96 -20 62 22 62 81 c 0
 62 206 143 373 143 491 c 0
 143 534 120 544 52 544 c 1
389 58 m 0
 398 133 423.36759012 188.166451566 440 251 c 0
 450.36759012 290.166451566 451 334 458 386 c 0
 469 463 479 547 480 593 c 5
 524 597 582 605 584 605 c 1
 597 587 l 1
 568 503 494.03346588 295.933223019 485 152 c 0
 479.03346588 56.9332230194 520 42 602 57 c 1
 606 44 604 32 599 19 c 1
 567 -5 512 -26 457 -24 c 0
 405 -23 385 17 389 58 c 0
EndSplineSet
EndChar

StartChar: k
Encoding: 65 107 28
GlifName: k
Width: 620
VWidth: 79
Flags: HMW
LayerCount: 3
Fore
SplineSet
36 -5 m 1
 108 195 182 622 182 724 c 0
 182 779 152 791 66 791 c 1
 66 801 70 820 77 831 c 1
 169 831 297 870 299 870 c 1
 312 852 l 1
 301 812 284 760 268 681 c 0
 224 454 167 207 170 0 c 1
 135 -5 93 -13 54 -19 c 1
 48 -14 42 -9 36 -5 c 1
251 355 m 1
 321 405 433 507 471 606 c 1
 595 608 l 1
 601 592 l 1
 549 490 405 388 293 332 c 5
 313 359 l 5
 326 257 406 48 571 61 c 1
 578 52 579 39 571 21 c 1
 555 8 492 -19 429 -19 c 0
 306 -19 268 231 251 355 c 1
EndSplineSet
EndChar

StartChar: j
Encoding: 64 106 29
GlifName: j
Width: 386
VWidth: 79
Flags: HMWO
LayerCount: 3
Fore
SplineSet
232 768 m 4
 232 819 271 852 315 852 c 4
 358 852 384 820 384 785 c 4
 384 732 346 701 302 701 c 4
 259 701 232 732 232 768 c 4
-54 -127 m 1
 -55 -113 -50 -93 -43 -84 c 1
 -22 -95 7 -102 38 -102 c 0
 75.4545454545 -102 123.535718609 -81.8823083784 141 -12 c 0
 168.74 100.726666667 217 329.226666667 217 445 c 0
 217 517.757894737 184.282051282 541 101 541 c 1
 100 554.658536585 105 568.317073171 110 581 c 1
 202.852459016 581.060606061 315.049180328 604.484848485 346 612 c 1
 359 594 l 1
 313.678571429 453.78313253 270.30831531 246.384551726 251 88 c 0
 234.616766467 -44 218.233532934 -166 80 -166 c 0
 14 -166 -46 -134 -54 -127 c 1
EndSplineSet
EndChar

StartChar: comma
Encoding: 9 44 30
GlifName: comma
Width: 196
VWidth: 79
Flags: HMW
LayerCount: 3
Fore
SplineSet
-17 -180 m 5
 29 -117 103 -21 123 109 c 5
 173 99 189 96 231 88 c 1
 214 14 87 -145 -1 -213 c 5
 -17 -180 l 5
EndSplineSet
EndChar

StartChar: acute
Encoding: 89 180 31
GlifName: acute
Width: 478
VWidth: 0
Flags: HMW
LayerCount: 3
Fore
SplineSet
78 1120 m 9
 88 1066 l 17
 196 1081 367 1158 430 1204 c 9
 370 1298 l 17
 307 1232 170 1142 78 1120 c 9
EndSplineSet
EndChar

StartChar: dieresis
Encoding: 86 168 32
GlifName: x
Width: 478
VWidth: 0
Flags: HMW
LayerCount: 3
Fore
SplineSet
78 1120 m 9
 88 1066 l 17
 196 1081 367 1158 430 1204 c 9
 370 1298 l 17
 307 1232 170 1142 78 1120 c 9
EndSplineSet
EndChar

StartChar: E
Encoding: 31 69 34
GlifName: E_
Width: 698
VWidth: 79
Flags: HMW
LayerCount: 3
Fore
SplineSet
14 0 m 1
 21 61 l 1
 90 64 102 92 112 141 c 0
 140 283 170 488 182 663 c 0
 185 711 168 739 100 739 c 1
 107 800 l 1
 182 794 311 795 394 795 c 0
 480 795 593 796 691 801 c 1
 690.502179063 768.263461718 663.495517139 595.595522255 660 597 c 1
 589 604 l 1
 589 663 572 732 534 771 c 1
 623 724 l 1
 543 732 454 735 355 735 c 0
 305 735 289 705 282 675 c 0
 237 472 217 248 206 125 c 0
 204 98 205 67 241 63 c 0
 330 53 460 68 513 81 c 1
 428 19 l 1
 477 68 507 138 530 204 c 1
 603 212 l 1
 603 207 589 86 573 0 c 1
 14 0 l 1
180 367 m 1
 189 434 l 5
 386 435 l 5
 540 452 l 5
 529 370 l 1
 405 377 305 369 180 367 c 1
EndSplineSet
EndChar

StartChar: F
Encoding: 32 70 35
GlifName: F_
Width: 657
VWidth: 79
Flags: HMW
LayerCount: 3
Fore
SplineSet
2 0 m 1
 11 62 l 1
 82 68 91 91 101 136 c 0
 128 270 159 482 172 663 c 0
 176 711 169 738 89 739 c 1
 91 800 l 1
 164 794 270 794 350 794 c 0
 431 794 534 796 654 801 c 1
 653.28515625 764.639648438 625.358398438 589.374023438 622 588 c 1
 561 596 l 1
 561 655 545 732 507 771 c 1
 586 725 l 5
 359 732 l 6
 301 733 282 709 274 667 c 4
 231 447 205.376953125 201.899414062 201 145 c 0
 194.376953125 58.8994140625 261 56 288 57 c 1
 282 0 l 1
 2 0 l 1
167 379 m 1
 176 448 l 1
 373 449 l 1
 509 466 l 1
 497 372 l 1
 373 379 292 381 167 379 c 1
EndSplineSet
EndChar

StartChar: P
Encoding: 42 80 36
GlifName: P_
Width: 692
VWidth: 79
Flags: HMW
LayerCount: 3
Fore
SplineSet
12 0 m 1
 19 57 l 5
 88 57 111 77 119 127 c 4
 154 342 172 465 184 625 c 0
 185 632 184 639 184 646 c 0
 184 694 169 729 94 732 c 1
 96 795 l 1
 126 793 153 792 179 792 c 0
 270 792 338 800 452 800 c 0
 589 800 662 727 662 628 c 0
 662 449 529 322 347 320 c 0
 293 320 233 328 233 328 c 1
 219 225 214 176 214 120 c 4
 214 64 248 52 301 52 c 5
 295 0 l 1
 12 0 l 1
246 412 m 1
 279 395 319 384 373 385 c 0
 488 386 567 480 567 599 c 0
 567 696 489 744 403 744 c 0
 359 744 312 736 289 727 c 1
 271 649 259 511 246 412 c 1
EndSplineSet
EndChar

StartChar: S
Encoding: 45 83 37
GlifName: S_
Width: 638
VWidth: 153
Flags: HMW
LayerCount: 3
Fore
SplineSet
43 23 m 1
 43 38 44 57 47 78 c 0
 52 121 63 174 77 225 c 1
 157 214 l 1
 154 154 161 97 194 53 c 1
 144 67 126 123 122 178 c 1
 157 131 175 58 290 58 c 0
 404 58 464 123 472 192 c 0
 494 374 119 363 148 605 c 0
 161 717 251 813 420 813 c 0
 533 813 611 781 611 781 c 1
 611 721.618007161 595.724694949 634.502019189 584 592 c 1
 502 603 l 1
 506 653 477 795 477 795 c 1
 537 630 l 1
 519 653 506 755 383 755 c 0
 311 755 248 701 242 640 c 0
 223 458 602 462 571 213 c 0
 556 91 454 -12 263 -13 c 0
 135 -14 43 23 43 23 c 1
EndSplineSet
EndChar

StartChar: U
Encoding: 47 85 38
GlifName: U_
Width: 767
VWidth: 79
Flags: HMW
LayerCount: 3
Fore
SplineSet
28 800 m 1
 142 796 240 794 369 801 c 1
 369 801 368 755 369 736 c 1
 267 730 247 699 234 632 c 0
 209 504 182 295 181 252 c 0
 177 135 226 51 367 62 c 0
 463 70 536 146 560 267 c 0
 584 389 593 515 607 641 c 1
 608 642 l 1
 618 733 573 741 503 741 c 1
 502 757 502 790 501 799 c 1
 602 795 730 796 808 800 c 1
 808 800 807 754 808 735 c 1
 738 732 708 716 699 663 c 0
 670 499 659 344 637 237 c 0
 598 46 440 -17 311 -17 c 0
 196 -17 37 27 62 232 c 0
 77 356 113 556 119 640 c 0
 124 711 112 738 29 737 c 1
 28 753 29 791 28 800 c 1
EndSplineSet
EndChar

StartChar: I
Encoding: 35 73 39
GlifName: I_
Width: 394
VWidth: 79
Flags: HMW
LayerCount: 3
Fore
SplineSet
-17 -1 m 5
 -7 62 l 5
 56 63 93 75 104 138 c 4
 124 249 153 455 168 638 c 4
 173 697 161 739 63 736 c 5
 69 800 l 5
 190 795 292 796 389 801 c 5
 385 739 l 5
 324 736 286 726 273 663 c 4
 247 531 221 368 203 153 c 4
 197 82 244 50 296 54 c 5
 298 0 l 5
 -17 -1 l 5
EndSplineSet
EndChar

StartChar: O
Encoding: 41 79 40
GlifName: O_
Width: 808
VWidth: 153
Flags: HMW
LayerCount: 3
Fore
SplineSet
38 278 m 0
 38 593 260 804 508 804 c 0
 659 804 774 713 774 512 c 0
 774 187 586 -15 322 -15 c 0
 144 -15 38 103 38 278 c 0
161 324 m 4
 161 169 229 57 372 57 c 0
 542 57 660 227 660 470 c 0
 660 622 574 730 443 730 c 0
 312 730 161 597 161 324 c 4
EndSplineSet
EndChar

StartChar: T
Encoding: 46 84 41
GlifName: T_
Width: 691
VWidth: 79
Flags: HMW
LayerCount: 3
Fore
SplineSet
41 604 m 1
 52 651 70 743 78 800 c 1
 185 794 264 791 382 792 c 0
 451 792 617 793 720 801 c 1
 715 773 683 602 683 598 c 1
 622 606 l 1
 622 665 605 732 567 771 c 1
 644 702 l 1
 559 733 459 728 374 728 c 0
 283 728 174 723 137 724 c 1
 195 761 l 1
 153 725 135 651 117 615 c 1
 41 604 l 1
115 0 m 1
 127 61 l 1
 198 63 226 98 237 146 c 0
 277 326 306 562 311 689 c 0
 313 733 289 746 259 746 c 1
 254 759 l 1
 317 757 444 780 444 780 c 1
 392 572 348 302 341 129 c 0
 338 67 393 63 420 65 c 1
 413 0 l 1
 305 0 223 0 115 0 c 1
EndSplineSet
EndChar

StartChar: R
Encoding: 44 82 42
GlifName: R_
Width: 792
VWidth: 79
Flags: HMW
LayerCount: 3
Fore
SplineSet
12 0 m 1
 19 57 l 1
 88 57 110.528345415 77.0777497644 119 127 c 4
 147 292 172 465 184 625 c 0
 185 632 184 639 184 646 c 0
 184 694 165 729 90 732 c 1
 96 795 l 1
 126 793 153 792 179 792 c 0
 270 792 338 800 452 800 c 0
 589 800 662 727 662 628 c 0
 662 449 529 342 347 340 c 0
 293 340 233 348 233 348 c 1
 219 245 214 176 214 120 c 0
 214 64 248 52 301 52 c 1
 295 0 l 1
 12 0 l 1
243 422 m 1
 276 405 319 404 373 405 c 0
 488 406 567 480 567 599 c 0
 567 696 489 744 403 744 c 0
 359 744 312 736 289 727 c 1
 271 649 256 521 243 422 c 1
364 376 m 5
 441 403 l 1
 503 299 601 54 721 55 c 5
 712 0 l 5
 598 1 534 0 420 0 c 5
 426 51 l 5
 462 50 525 55 493 120 c 4
 479.357753914 147.710812362 412 289 364 376 c 5
EndSplineSet
EndChar

StartChar: Q
Encoding: 43 81 43
GlifName: Q_
Width: 842
VWidth: 153
Flags: HMW
LayerCount: 3
Fore
SplineSet
201 12 m 1
 273 21 l 1
 317 -80 517 -126 630 -128 c 0
 753 -130 846 -96 846 -96 c 1
 857 -130 l 1
 837 -214 l 1
 772 -234 704 -240 591 -239 c 0
 347 -235 221 -58 201 12 c 1
EndSplineSet
Refer: 40 79 N 1 0 0 1 0 0 2
EndChar

StartChar: L
Encoding: 38 76 44
GlifName: L_
Width: 641
VWidth: 79
Flags: HMW
LayerCount: 3
Fore
SplineSet
2 0 m 1
 12 63 l 1
 75 64 109 82 124 147 c 0
 154 276 180 490 192 663 c 0
 195 711 170 740 100 739 c 1
 112 800 l 1
 219 791 345 795 428 799 c 1
 417 738 l 1
 347 738 313 732 301 673 c 0
 259 471 225 198 221 145 c 0
 218 111 221 76 257 73 c 0
 318 68 438 75 489 82 c 1
 513 120 533 166 542 204 c 1
 613 212 l 1
 613 167 597 27 588 0 c 1
 2 0 l 1
EndSplineSet
EndChar

StartChar: G
Encoding: 33 71 45
GlifName: G_
Width: 818
VWidth: 79
Flags: HMW
LayerCount: 3
Fore
SplineSet
31 278 m 0
 31 558 237 801 569 801 c 0
 687 801 761 777 761 777 c 1
 758 726 751 626 743 584 c 1
 677 587 l 1
 656 675 602 748 557 755 c 1
 561 760 574 763 591 763 c 0
 634 763 703 745 703 700 c 0
 703 689 699 676 689 662 c 1
 673 666 617 732 488 732 c 0
 314 732 147 550 147 319 c 0
 147 171 228 54 405 54 c 0
 508 54 560 87 610 138 c 1
 668 106 l 1
 583 1 449 -27 354 -27 c 0
 160 -27 31 95 31 278 c 0
484 326 m 1
 496 390 l 1
 542 387 588 386 632 386 c 0
 684 386 736 388 788 390 c 1
 784 330 l 1
 747 332 699 330 691 261 c 0
 685 208 677 141 668 106 c 1
 529 46 l 1
 560 105 582 196 582 266 c 0
 582 304 551 324 484 326 c 1
EndSplineSet
EndChar

StartChar: D
Encoding: 30 68 46
GlifName: D_
Width: 790
VWidth: 79
Flags: HMW
LayerCount: 3
Fore
SplineSet
-16 0 m 1
 -9 61 l 1
 54 61 92 81 102 131 c 0
 121 224 137 313 148 400 c 0
 159 483 165 595 168 648 c 0
 171 697 151 734 70 736 c 1
 78 799 l 1
 117 798 152 797 186 797 c 0
 310 797 401 804 472 804 c 0
 626 804 757 725 757 528 c 0
 757 200 546 4 264 0 c 1
 -16 0 l 1
218 136 m 4
 217 85 266 81 313 81 c 0
 321 81 329 81 337 81 c 0
 510 85 648 251 648 485 c 0
 648 642 580 736 418 739 c 0
 366 740 317 730 289 720 c 5
 244 484 221 272 218 136 c 4
EndSplineSet
EndChar

StartChar: J
Encoding: 36 74 47
GlifName: J_
Width: 422
VWidth: 79
Flags: HMW
LayerCount: 3
Fore
SplineSet
-93 -193 m 1
 -60 -142 l 1
 129 -187 140 -18 158 84 c 4
 178 205 197 470 217 653 c 4
 226 734 138 736 108 736 c 5
 118 800 l 5
 230 794 326 794 451 801 c 1
 442 736 l 1
 371 733 338 720 328 665 c 0
 286 415 269 261 248 39 c 0
 236 -94 180 -226 13 -227 c 0
 -42 -227 -80 -201 -93 -193 c 1
EndSplineSet
EndChar

StartChar: K
Encoding: 37 75 48
GlifName: K_
Width: 851
VWidth: 79
Flags: HMW
LayerCount: 3
Fore
SplineSet
14 -1 m 5
 24 63 l 1
 90 65 119 77 130 140 c 0
 150 251 175 460 197 643 c 0
 205 707 185 739 107 737 c 1
 106 753 116 791 115 800 c 1
 236 794 338 795 446 801 c 1
 446 801 437 758 438 739 c 1
 387 740 329 727 316 664 c 0
 289 532 262 358 244 143 c 0
 238 72 286 53 338 57 c 1
 332 0 l 5
 14 -1 l 5
312 420 m 1
 354 454 501 584 596 690 c 0
 613 710 614 739 541 736 c 1
 548 797 l 1
 667 792 812 800 812 800 c 1
 806 741 l 1
 766 742 736 717 703 685 c 0
 640 623 488 481 428 425 c 1
 503 327 673 60 753 61 c 1
 747 0 l 5
 633 1 569 0 455 0 c 5
 458 57 l 1
 494 56 549 61 511 126 c 0
 496 152 382 301 319 387 c 1
 312 420 l 1
EndSplineSet
EndChar

StartChar: Z
Encoding: 52 90 49
GlifName: Z_
Width: 732
VWidth: 79
Flags: HMW
LayerCount: 3
Fore
SplineSet
-5 0 m 1
 -2 14 -6 46 -1 71 c 1
 101 138 398 542 518 702 c 0
 531 720 538 733 488 733 c 0
 415 733 284 731 226 727 c 1
 198 687 181 637 171 596 c 1
 98 588 l 1
 96.0894635938 591.808323154 113.862449706 772.255132968 118 801 c 1
 165 803 278 796 364 796 c 0
 447 796 628 794 705 800 c 1
 705 739 l 1
 608 672 176 74 155 56 c 1
 121 115 l 1
 148 85 233 74 289 73 c 0
 371 72 489 72 537 79 c 1
 561 117 576 166 585 204 c 5
 659 212 l 1
 659.940525924 208.274682328 641.064965741 27.7286093069 635 0 c 1
 -5 0 l 1
EndSplineSet
EndChar

StartChar: Y
Encoding: 51 89 50
GlifName: Y_
Width: 644
VWidth: 79
Flags: HMW
LayerCount: 3
Fore
SplineSet
21 796 m 1
 134 791 208 793 322 796 c 1
 322 742 l 1
 245 736 223 724 243 670 c 0
 261 621 283 553 311 488 c 1
 318 453 333 385 333 385 c 1
 386 457 456 557 527 665 c 0
 565 722 515 736 447 733 c 1
 454 796 l 1
 550 790 647 792 744 796 c 1
 740 738 l 1
 680 736 647 710 612 662 c 0
 497 505 413 402 366 322 c 1
 337 319 307 310 272 300 c 1
 230 402 203 480 124 668 c 0
 98 730 61 739 14 738 c 1
 21 796 l 1
118 -1 m 1
 128 57 l 5
 199 62 226 88 239 140 c 4
 252 191 266 249 267 373 c 1
 389 385 l 1
 350 243 348 164 353 117 c 4
 358 68 377 60 430 57 c 5
 424 0 l 5
 118 -1 l 1
EndSplineSet
EndChar

StartChar: X
Encoding: 50 88 51
GlifName: X_
Width: 806
VWidth: 79
Flags: HMW
LayerCount: 3
Fore
SplineSet
-17 1 m 5
 -7 66 l 5
 80 66 119 105 161 147 c 4
 210 197 321 340 384 424 c 5
 416 452 l 5
 465 517 541 611 574 653 c 4
 621.8125 713.852539062 614 727 542 728 c 5
 553 798 l 5
 650 790 754 790 842 798 c 5
 833 729 l 5
 754 729 707 695 645 623 c 4
 582 550 489 444 447 392 c 5
 447 382 l 5
 386 323 321 235 271 163 c 4
 239 117 216 61 308 61 c 5
 299 1 l 5
 -17 1 l 5
89 731 m 5
 99 798 l 5
 224 787 328 789 428 797 c 5
 421 733 l 5
 319 732 314 700 337 650 c 4
 372 572 428 453 435 440 c 5
 444 441 l 5
 474 387 617 63 751 59 c 5
 739 1 l 5
 390 1 l 5
 396 62 l 5
 454 63 519 73 489 143 c 4
 463 203 402 295 375 353 c 5
 354 378 l 5
 320 454 281 522 232 622 c 4
 190 707 152 731 89 731 c 5
EndSplineSet
EndChar

StartChar: N
Encoding: 40 78 52
GlifName: N_
Width: 916
VWidth: 79
Flags: HMW
LayerCount: 3
Fore
SplineSet
260 719 m 1049
-10 61 m 1,0,1
 63 62 95 79 110 162 c 0,2,3
 132 273 157 469 175 633 c 0,4,5
 183 704 148 736 78 736 c 1,6,7
 77 752 89 791 88 800 c 1,8,9
 186 794 222 795 326 798 c 1,10,11
 376 704 502 439 601 266 c 0,0,0
 625 224 643 105 657 80 c 1,12,13
 632 96 l 1,14,15
 660 177 699 508 705 633 c 0,16,17
 709 724 678 736 608 736 c 1,18,19
 607 752 618 791 617 800 c 1,20,21
 673 796 711 793 783 794 c 0,22,23
 824 794 865 794 927 801 c 1,24,25
 927 801 917 757 918 738 c 1,26,27
 857 739 827 720 815 665 c 0,28,29
 778 486 748 215 730 0 c 1,30,31
 702 -4 672 -5 621 -16 c 1,32,-1
 619 -17 l 1,33,34
 481 239 425 383 310 574 c 0,0,0
 307 579 263 714 260 719 c 0,0,0
 256 726 284 693 280 700 c 1,35,36
 246 518 209 188 209 141 c 0,37,38
 211 71 247 56 299 56 c 1,39,-1
 291 0 l 5,40,-1
 -19 -1 l 5,41,-1
 -10 61 l 1,0,1
EndSplineSet
EndChar

StartChar: M
Encoding: 39 77 53
GlifName: M_
Width: 1098
VWidth: 79
Flags: HMW
LayerCount: 3
Fore
SplineSet
3 -1 m 1
 13 61 l 1
 75 59 111 79 124 162 c 0
 146 273 172 481 190 645 c 0
 199 726 142 736 84 736 c 1
 91 800 l 1
 178 795 240 796 324 799 c 1
 349 716 472.600431356 421.997843221 504 265 c 0
 513.600431356 216.997843221 506 149 504 90 c 1
 532 40 l 1
 470 19 l 1
 450 95 359.085470932 398.384489294 299 556 c 0
 290.085470932 579.384489294 271 681 261 695 c 1
 273 673 l 1
 239 491 210 183 211 139 c 0
 213 69 235 55 297 55 c 1
 291 0 l 1
 3 -1 l 1
474 74 m 1
 590 292 781 681 841 798 c 5
 897 793 989 793 1078 800 c 5
 1069 737 l 5
 1008 737 972 724 961 643 c 4
 936 479 912 263 906 152 c 4
 901 69 926 53 999 55 c 5
 994 -1 l 5
 672 0 l 5
 679 61 l 5
 741 59 778 69 798 139 c 4
 810 186 855 518 865 700 c 5
 857 690 904 739 897 728 c 4
 794 566 660 289 533 40 c 1
 474 74 l 1
EndSplineSet
EndChar

StartChar: question
Encoding: 26 63 55
GlifName: question
Width: 549
VWidth: 153
Flags: HMW
LayerCount: 3
Fore
SplineSet
94 201 m 1
 103 276 149 339 197 385 c 0
 297 481 408 567 411 677 c 0
 412.363129509 726.981415326 387 771 325 771 c 0
 239 771 164 687 121 616 c 1
 122 666 124 716 131 748 c 1
 149 772 l 1
 173 784 280.005859375 826.7421875 367 827 c 0
 472.0625 827.311523438 531 784.00390625 531 710 c 4
 531 598 366 481 274 384 c 0
 215.741210938 323.45703125 206 271.43866114 206 201 c 1
 94 201 l 1
EndSplineSet
Refer: 10 46 N 1 0 0.176327 1 11 -3 2
EndChar

StartChar: exclam
Encoding: 1 33 58
GlifName: exclam
Width: 325
VWidth: 153
Flags: HMW
LayerCount: 3
Fore
SplineSet
134 211 m 1
 181 404 216 580 218 752 c 1
 247 775 302 791 337 791 c 2
 342 791 l 1
 342 791 345 779 345 755 c 0
 345 740 344 721 340 697 c 0
 312 531 266 414 208 211 c 1
 134 211 l 1
EndSplineSet
Refer: 10 46 N 1 0 0.176327 1 37 -10 2
EndChar

StartChar: parenright
Encoding: 7 41 59
GlifName: parenright
Width: 368
VWidth: 153
Flags: HMW
LayerCount: 3
Fore
SplineSet
13 -95 m 1
 146.288085938 74.173828125 257 281.037109375 257 536 c 0
 257 628 242 764 195 840 c 1
 256 871 l 1
 296 828 344 709 344 545 c 0
 344 280.109375 223.1875 64.0068359375 62 -133 c 1
 13 -95 l 1
EndSplineSet
EndChar

StartChar: parenleft
Encoding: 6 40 60
GlifName: parenleft
Width: 369
VWidth: 153
Flags: HMW
LayerCount: 3
Fore
SplineSet
125 215 m 0
 125 491.958984375 275.789960445 695.433881001 438 883 c 1
 483 849 l 1
 331.534987664 656.755945882 221 479.702148438 221 186 c 4
 221 61 252 -38 287 -110 c 1
 245 -164 l 1
 192 -123 125 49 125 215 c 0
EndSplineSet
EndChar

StartChar: hyphen
Encoding: 10 45 61
GlifName: hyphen
Width: 532
VWidth: 153
Flags: HMW
LayerCount: 3
Fore
SplineSet
45 328 m 1
 62 413 l 1
 155 408 228 406 299 406 c 0
 370 406 438 408 523 413 c 1
 516 386 518 362 510 328 c 1
 45 328 l 1
EndSplineSet
EndChar

StartChar: emdash
Encoding: 253 8212 62
GlifName: emdash
Width: 644
VWidth: 153
Flags: HMW
LayerCount: 3
Fore
SplineSet
40 328 m 1
 54 423 l 1
 148 418 245 416 339 416 c 0
 433 416 525 418 609 423 c 1
 607 396 601 362 599 328 c 1
 40 328 l 1
EndSplineSet
EndChar

StartChar: r
Encoding: 72 114 64
GlifName: r
Width: 489
VWidth: 79
Flags: HMW
LayerCount: 3
Fore
SplineSet
32 541 m 1
 32 554 38 574 42 581 c 1
 114.986328125 581 221.0625 604.484375 253 612 c 1
 267 592 l 1
 249 524.892578125 210 374.409179688 189 289 c 1
 205 289 l 1
 186 192 171 125 173 -2 c 1
 139 -7 95 -14 66 -17 c 5
 55 -2 l 5
 83 76 115.178710938 176.149414062 136 288 c 0
 175.27734375 505.889648438 166.666992188 541 32 541 c 1
119 106 m 1
 187 251.711914062 149 512.197265625 492 612 c 1
 505 592 l 1
 502 561.200195312 483 483.733398438 469 438 c 1
 446 466 413 485 375 485 c 0
 254 485 159 222.796875 159 9 c 1
 119 106 l 1
EndSplineSet
EndChar

StartChar: f
Encoding: 60 102 65
GlifName: f
Width: 434
VWidth: 79
Flags: HMW
LayerCount: 3
Fore
SplineSet
51 -208 m 5
 74.244140625 -125.80859375 170.864257812 257.571289062 196 491 c 5
 176.83203125 497 89.5244140625 505 64 505 c 5
 63 517.962890625 68 547.952148438 75 565 c 5
 206 565 l 5
 244 739.610351562 342 876.89453125 572 867 c 5
 581 850 l 5
 572 790 559 725 548 688 c 5
 515 751 471 783 424 783 c 4
 333.681640625 783 300.295898438 643.893554688 290 565 c 5
 436 565 l 5
 436 544.903320312 430 521.077148438 425 506 c 5
 343.297851562 506 309.702148438 495 276 486 c 5
 237.8046875 299.2421875 178.755859375 -29.62109375 170 -212 c 5
 135.055664062 -216 110.833007812 -220 74 -227 c 5
 51 -208 l 5
EndSplineSet
EndChar

StartChar: x
Encoding: 78 120 66
GlifName: uni0078
Width: 711
VWidth: 79
Flags: HMW
LayerCount: 3
Fore
SplineSet
41 3 m 1
 41 19 l 1
 50 77 65 129 76 163 c 1
 94 131 128 111 165 111 c 0
 260 111 302 288 318 346 c 1
 342 346 l 1
 342 383 l 1
 362 383 l 1
 415 518 480 612 600 612 c 0
 625 612 649 609 649 609 c 1
 649 600 l 1
 642 530 627 471 616 440 c 1
 596 498 578 517 536 517 c 0
 468 517 388 364 373 280 c 1
 335 264 l 1
 327 244 321 216 315 198 c 0
 275 78 212 -9 112 -9 c 0
 91 -9 62 -6 41 3 c 1
108 536 m 1
 100.951171875 544.495117188 104.592773438 558.305664062 108 572 c 1
 141 592 199 615 261 615 c 0
 361.46484375 615 367 523.874023438 367 439 c 0
 367 426 360 367 359 352 c 0
 361 329 365 337 372 311 c 0
 389 245 423 146 460 107 c 0
 490 79 520 67 554 67 c 0
 570 67 586 73.6826171875 604 77.6826171875 c 1
 608.264648438 67.826171875 608.393554688 51.6025390625 604 37.6826171875 c 1
 575 14.6826171875 524 -14 461 -14 c 0
 351 -14 342 122 336 180 c 0
 331.940429688 219.2421875 331.383789062 239.1328125 327.66796875 259 c 1
 327.014648438 262.494140625 320.448242188 262.111328125 320 266 c 0
 313 335 291 424 268 476 c 0
 249 516 214 539 153 539 c 0
 140 539 125 538 108 536 c 1
EndSplineSet
EndChar

StartChar: z
Encoding: 80 122 67
GlifName: uni007A_
Width: 538
VWidth: 153
Flags: HMW
LayerCount: 3
Fore
SplineSet
6 18 m 1
 22 0 l 1
 96 6 154 4 237 4 c 0
 301 4 377 5 446 -1 c 1
 460 12 l 1
 467.485351562 37.681640625 481.500976562 102.484375 490.755859375 145 c 1
 439 101 401.258605827 79.0411908363 348 75 c 0
 313.00613484 72.3447129339 150 65 150 89 c 0
 150 98 169.466796875 120.8984375 177 132 c 0
 215 188 286 274 382 399 c 0
 398 420 485 524 516 583 c 1
 495 603 l 1
 359.98046875 594.665039062 233.142578125 592.947265625 95 593 c 1
 85 533.711914062 80.1337890625 511.799804688 77 451 c 1
 135 525 177 525 219 528 c 0
 266.061523438 531.137695312 382 537.138671875 382 511 c 0
 382 501 348.69921875 455.802734375 337 441 c 0
 239 317 47 79 6 18 c 1
EndSplineSet
EndChar

StartChar: asterisk
Encoding: 305 42 69
GlifName: uni002A_
Width: 375
VWidth: 79
Flags: HMW
LayerCount: 3
Fore
SplineSet
29 652 m 1
 56 690 103 737 142 761 c 1
 141 769 155 724 154 732 c 1
 134 773 67 829 35 848 c 1
 59 871 l 1
 96 859 155 838 200 791 c 1
 171 789 l 1
 200 812 249 890 258 918 c 1
 271 910 275 908 286 901 c 1
 279 865 270 813 236 758 c 1
 237 775 l 1
 267 756 330 741 367 736 c 1
 369 720 370 715 372 702 c 1
 336 694 253 699 224 711 c 1
 233 728 l 1
 234 685 252 630 268 584 c 1
 231 576 l 1
 204 597 169 683 165 715 c 1
 186 706 l 1
 140 692 90 662 50 626 c 1
 29 652 l 1
EndSplineSet
EndChar

StartChar: zero
Encoding: 13 48 70
GlifName: uni0030
Width: 696
VWidth: 153
Flags: HMW
LayerCount: 3
Fore
SplineSet
98 266 m 0
 98 530 252 688 444 688 c 4
 570 688 667 610 667 420 c 0
 667 202.26953125 566.571194364 -5 347 -5 c 0
 186 -5 98 107 98 266 c 0
197 283 m 0
 197 149 241 54 349 54 c 4
 479.57421875 54 573 236.287109375 573 422 c 4
 573 550 506 622 423 622 c 0
 301.766601562 622 197 490.01171875 197 283 c 0
EndSplineSet
EndChar

StartChar: one
Encoding: 14 49 71
GlifName: uni0031
Width: 428
VWidth: 79
Flags: HMW
LayerCount: 3
Fore
SplineSet
85 603 m 1
 90 644 l 1
 181.169921875 645.813476562 360.747070312 694.9453125 361 695 c 1
 338 591 276 86 256 0 c 1
 162 0 l 1
 202 198 233 448 233 512 c 0
 233 574 156 603 85 603 c 1
60 0 m 1
 70 52 l 1
 74 52 78 52 82 52 c 0
 141 52 178 82 188 137 c 1
 281 151 l 1
 280 144 279 137 279 131 c 0
 279 61 348 53 378 53 c 1
 378 0 l 1
 60 0 l 1
EndSplineSet
EndChar

StartChar: two
Encoding: 15 50 72
GlifName: uni0032
Width: 650
VWidth: 153
Flags: HMW
LayerCount: 3
Fore
SplineSet
58 0 m 1
 52 58 l 1
 139 102 308 220 377 287 c 0
 463 376 527 441.916015625 527 537 c 4
 527 606 493 647 414 647 c 0
 318 647 233 569 188 523 c 1
 191 580 196 622 201 636 c 0
 201.672851562 637.883789062 200 640 200 640 c 1
 260 671 350 701 430 701 c 0
 543 701 636 655 636 555 c 0
 627 313 233 96 159 60 c 1
 166 75 l 1
 433 75 l 2
 511 75 536 130 547 159 c 1
 610 159 l 1
 578 0 l 1
 58 0 l 1
EndSplineSet
EndChar

StartChar: three
Encoding: 16 51 73
GlifName: uni0033
Width: 601
VWidth: 153
Flags: HMW
LayerCount: 3
Fore
SplineSet
44 -109 m 1
 37 -82 54 -15 85 27 c 1
 104 -11 175 -55 250 -55 c 0
 383 -55 446 40 446 130 c 0
 446 230 335 285 221 278 c 5
 231 326 l 5
 366 351 480.141932682 418.964408253 483 529 c 0
 485 606 436 651 360 651 c 0
 257 651 189 567 138 505 c 1
 137 568 151 636 151 636 c 1
 206 670 293 704 390 704 c 0
 529 704 586 638 586 561 c 0
 582 434 460 334 322 311 c 5
 312 335 l 5
 314 335 310 335 312 335 c 5
 457 335 542 261 540 153 c 0
 537 -55 343 -122 170 -122 c 0
 135 -122 60 -116 44 -109 c 1
EndSplineSet
EndChar

StartChar: four
Encoding: 17 52 74
GlifName: uni0034
Width: 717
VWidth: 79
Flags: HMW
LayerCount: 3
Fore
SplineSet
386 -112 m 1
 420 69 450 230 466 394 c 9
 466 394 520 418 580 450 c 5
 521 162 504 65 493 -112 c 1
 386 -112 l 1
58 139 m 1
 197 295 334 517 386 653 c 1
 421 655 457 656 514 664 c 1
 467 547 264 244 119 149 c 1
 130 188 l 1
 200 188 l 2
 356 188 622 192 704 198 c 13
 704 103 l 21
 83 103 l 1
 58 139 l 1
EndSplineSet
EndChar

StartChar: five
Encoding: 18 53 75
GlifName: uni0035
Width: 594
VWidth: 153
Flags: HMW
LayerCount: 3
Fore
SplineSet
34 -97 m 0
 34 -59 49 -8 79 35 c 1
 97 -10 146 -60 231 -60 c 0
 348 -60 453 8 457 136 c 4
 457 251 331 331 164 331 c 0
 151 331 139 331 125 330 c 1
 152 449 171 540 194 670 c 1
 227 668 265 667 303 667 c 0
 394 667 502 672 570 676 c 1
 551 588 l 1
 424 596 383 596 243 596 c 1
 216 402 l 1
 383 402 552 331 552 172 c 0
 552 -14 376 -104 264 -122 c 0
 235 -127 201 -129 169 -129 c 0
 108 -129 51 -122 35 -112 c 1
 34 -107 34 -102 34 -97 c 0
EndSplineSet
EndChar

StartChar: six
Encoding: 19 54 76
GlifName: uni0036
Width: 658
VWidth: 153
Flags: HMW
LayerCount: 3
Fore
SplineSet
107 245 m 0
 107 570 325 743 523 787 c 0
 548 793 576 797 602 797 c 0
 611 797 620 797 629 796 c 1
 629 743 l 1
 376 743 238 492 227 278 c 0
 227 268 226 258 226 249 c 0
 226 123 271 46 355 46 c 0
 456 45 518 155 522 286 c 0
 522 387 463 424 396 424 c 0
 285 424 217 346 204 335 c 1
 206 335 186 371 188 372 c 0
 283 486 378 508 442 508 c 0
 534 508 642 448 642 302 c 0
 642 287 642 270 639 253 c 0
 618 117 507 -14 329 -14 c 0
 155 -14 107 132 107 245 c 0
EndSplineSet
EndChar

StartChar: seven
Encoding: 20 55 77
GlifName: uni0037
Width: 662
VWidth: 0
Flags: HMW
LayerCount: 3
Fore
SplineSet
121 -75 m 5
 186 87 419 452 613 601 c 5
 613 573 l 1
 323 573 l 1
 226 567 169 531 129 482 c 1
 141 543 154 580 162 660 c 1
 197 659 232 659 268 659 c 0
 423 659 579 668 656 672 c 1
 695 618 l 1
 531 456 316 127 225 -128 c 1
 191 -101 151 -85 121 -75 c 5
EndSplineSet
EndChar

StartChar: eight
Encoding: 21 56 78
GlifName: uni0038
Width: 626
VWidth: 153
Flags: HMW
LayerCount: 3
Fore
SplineSet
68 145 m 0
 68 56 122 -25 294 -25 c 0
 441 -25 591 62 591 223 c 0
 591 441 258 421 258 590 c 0
 258 679 329 731 397 731 c 0
 471 731 509 683 509 617 c 0
 508 528 440 449 372 420 c 1
 396 390 l 1
 473 397 614 476 614 626 c 0
 614 726 536 791 422 791 c 0
 290 791 146 705 146 551 c 0
 146 339 461 376 461 208 c 0
 461 118 413 40 310 38 c 0
 224 38 188 98 188 162 c 0
 191 248 232 308 331 350 c 0
 332 350 332 352 332 355 c 0
 332 363 329 380 329 388 c 0
 329 391 329 392 330 392 c 1
 180 383 82 280 69 174 c 0
 68 164 68 155 68 145 c 0
EndSplineSet
EndChar

StartChar: nine
Encoding: 22 57 79
GlifName: uni0039
Width: 633
VWidth: 153
Flags: HMW
LayerCount: 3
Fore
SplineSet
102 370 m 0
 102 385 103 402 106 419 c 0
 127 555 238 686 416 686 c 0
 590 686 638 540 638 427 c 0
 638 102 420 -71 222 -115 c 0
 197 -121 168 -125 142 -125 c 0
 133 -125 124 -125 115 -124 c 1
 115 -73 l 1
 382 -72 497 182 512 394 c 0
 513 405 513 416 513 426 c 0
 513 550 473 626 389 626 c 0
 288 627 226 517 222 386 c 0
 222 285 281 248 348 248 c 0
 459 248 527 326 540 337 c 1
 538 337 559 301 557 300 c 0
 462 186 366 164 302 164 c 0
 210 164 102 224 102 370 c 0
EndSplineSet
EndChar

StartChar: alpha
Encoding: 266 945 81
Width: 773
VWidth: 0
Flags: HMW
LayerCount: 3
Fore
SplineSet
37 201 m 0
 37 66 118 -5 209 -5 c 0
 435 -5 614 307 664 557 c 0
 669 582 676 627 676 627 c 1
 579 612 l 1
 579 612 555 390 502 280 c 0
 454 180 351 99 254 99 c 0
 149 99 97 159 97 278 c 0
 97 429 215 511 320 511 c 0
 415 511 475 449 484 358 c 0
 495 250 475 183 475 108 c 0
 475 21 521 -17 596 -17 c 0
 652 -17 726 21 749 51 c 1
 735 79 l 1
 717 70 680 66 664 66 c 0
 585 66 535 115 535 223 c 0
 535 326 534 613 332 613 c 0
 158 613 37 414 37 201 c 0
EndSplineSet
EndChar

StartChar: epsilon
Encoding: 65541 949 85
Width: 507
VWidth: 0
Flags: HMW
LayerCount: 3
Fore
SplineSet
44 174 m 0
 42 88 109 -11 248 -11 c 0
 332 -11 415 23 475 76 c 1
 461 125 l 1
 401 94 331 75 279 75 c 0
 154 75 114 133 114 188 c 0
 114 237 174 267 189 267 c 5
 235 257 290 258 342 265 c 1
 352 307 l 1
 236 307 151 346 151 428 c 0
 151 522 233 558 349 558 c 0
 381 558 427 554 465 544 c 1
 475 590 l 1
 413 607 366 616 304 616 c 0
 193 616 58 565 58 416 c 0
 58 360 92 298 152 273 c 1
 148 271 147 304 143 304 c 0
 99 304 46 246 44 174 c 0
EndSplineSet
EndChar

StartChar: eta
Encoding: 268 951 87
Width: 682
VWidth: 0
Flags: HMW
LayerCount: 3
Fore
SplineSet
-4 547 m 1
 9 513 l 1
 25 516 38 518 51 518 c 0
 127 518 151 458 151 330 c 0
 151 202 114 35 105 0 c 1
 197 0 l 1
 198 39 231 287 232 331 c 0
 233 403 297 510 414 510 c 0
 499 510 536 424 536 269 c 0
 536 5 470 -159 428 -326 c 1
 545 -306 l 1
 563 -288 613 79 613 324 c 0
 613 386 610 441 602 480 c 0
 585 562 536 611 459 611 c 0
 448 611 437 610 425 608 c 0
 360 597 235 492 198 372 c 1
 195 368 235 413 232 408 c 5
 230 501 239 601 140 601 c 0
 74 601 18 568 -4 547 c 1
EndSplineSet
EndChar

StartChar: iota
Encoding: 269 953 89
Width: 419
VWidth: 0
Flags: HMW
LayerCount: 3
Fore
SplineSet
95 587 m 5
 114 458 116 353 120 200 c 0
 123 87 145 -29 266 -29 c 0
 327 -29 373 14 393 35 c 1
 380 79 l 1
 363 77 348 77 334 77 c 0
 234 77 221 119 207 241 c 0
 203 275 202 310 202 345 c 0
 202 465 221 577 220 607 c 1
 201 606 126 589 95 587 c 5
EndSplineSet
EndChar

StartChar: dotlessi
Encoding: 184 305 120
Width: 393
VWidth: 79
Flags: W
HStem: -24 76<148.624 302.094> 541 40<55.3772 148.604>
VStem: 174 22<144 474>
LayerCount: 3
Fore
SplineSet
50 541 m 1
 141.851851852 541 173.040783384 517.075524776 174 474 c 0
 176.653147601 354.855144335 93 119.116210938 93 46 c 0
 93 6 116.247070312 -24 181 -24 c 0
 227 -24 302 -2 330 16 c 1
 335 26 335 36 335 54 c 1
 321.59375 53 308.1875 52 296 52 c 0
 217 52 196 81.9677503229 196 144 c 0
 196 223.88963964 248 437.265765766 301 593 c 1
 289 611 l 2
 287.954545455 611 130.545454545 580.901719902 59 581 c 1
 51.2857142857 568 47.4285714286 552 50 541 c 1
EndSplineSet
EndChar

StartChar: macron
Encoding: 88 175 151
Width: 0
VWidth: 0
Flags: HW
LayerCount: 3
Fore
SplineSet
-207 876 m 13
 -217 802 l 21
 151 802 l 13
 161 876 l 21
 -207 876 l 13
EndSplineSet
EndChar

